<?xml version="1.0" encoding="utf-8"?>
<!-- Generator: Adobe Illustrator 22.1.0, SVG Export Plug-In . SVG Version: 6.00 Build 0)  -->
<svg version="1.1" id="Layer_1" xmlns="http://www.w3.org/2000/svg" xmlns:xlink="http://www.w3.org/1999/xlink" x="0px" y="0px"
	 viewBox="0 0 300 300" style="enable-background:new 0 0 300 300;" xml:space="preserve">
<style type="text/css">
	.st0{fill:#FFFFFF;}
	.st1{fill:#BDECFC;}
</style>
<g>
	<g>
		
			<ellipse transform="matrix(0.7071 -0.7071 0.7071 0.7071 -62.8391 150.2928)" class="st0" cx="150" cy="151" rx="146.5" ry="146.5"/>
		<path d="M150,4.9c39,0,75.7,15.2,103.3,42.8S296.1,112,296.1,151s-15.2,75.7-42.8,103.3S189,297.1,150,297.1
			s-75.7-15.2-103.3-42.8S3.9,190,3.9,151S19.1,75.3,46.7,47.7S111,4.9,150,4.9 M150,4C68.8,4,3,69.8,3,151s65.8,147,147,147
			s147-65.8,147-147S231.2,4,150,4L150,4z"/>
	</g>
	<g>
		<path class="st1" d="M103.3,94c0.2-5.7,1.2-11.4,2.9-16.9c1.6-5.1,3.8-10,6.6-14.5c2.5-3.9,5.2-7.6,8.1-11.2
			c2.4-2.8,5-5.4,7.7-7.8c2.1-1.7,4.3-3.2,6.5-4.6c2.9-1.7,5.9-3.1,9-4.1c4.5-1.4,9.3-2,14-1.8c3.1,0.1,6.1,1.2,8.7,3
			c0.3,0.2,0.4,0.6,0.2,0.9c-0.1,0.2-0.3,0.3-0.5,0.3c-4.7,0.4-9.2,2.1-13.1,4.7c-3.2,3.1-5,7.3-5.1,11.7c0,5,1.6,9.8,6,12.6
			c5.6,3.6,12.2,4,15.2,4.6c3.4,0.7,9.1,1.2,14.3,4.8c5.2,3.6,8.6,5.5,10.5,9.3c2.1,2.8,2.3,3.9,2.3,8.8
			C187.8,93.5,103.3,94,103.3,94z"/>
		<path class="st1" d="M80.4,116.3c0-5.9,3.6-13.5,6.7-17.3c3.1-3.8,124.9-2.8,128.1-1.4c2.9,1,4,9.8,4.2,12.9
			c0.6,3.8,0.4,7.7-0.5,11.4c-0.4,2.6-1.2,5.1-2.4,7.5c-0.3,0.6-1,1-1.7,0.9c-5.2-0.3-126.9-0.4-131.1-0.5c-0.8,0-1.4-0.5-1.7-1.2
			C80.7,124.7,80.3,121.7,80.4,116.3z"/>
		<path class="st1" d="M56.6,150.6c-0.1-4.4,1.5-8.8,4.5-12c2.8-3.1,4.5-3.7,7.1-4.2c2.6-0.5,159.4-1.3,165.5,0.9
			c4.4,2.2,9.7,5.7,9.8,14c0.1,11.7-4.8,16-6.4,16.4c-2.6,0.6-168.3-0.6-173.1-1.1c-0.9-0.1-1.6-0.5-2.2-1.1
			C58.4,159.9,56.6,155.4,56.6,150.6z"/>
		<path class="st1" d="M90,266.7L60.8,168c-0.1-0.2,174.8,3.2,178.5,1.7c0.2-0.1-26.7,92.3-28.2,97.1c0,0.1-0.2,0.2-0.3,0.2H90.4
			C90.2,267,90,266.9,90,266.7z"/>
	</g>
</g>
</svg>
